<?xml version="1.0" standalone="no"?><!DOCTYPE svg PUBLIC "-//W3C//DTD SVG 1.1//EN" "http://www.w3.org/Graphics/SVG/1.1/DTD/svg11.dtd"><svg t="1575271908999" class="icon" viewBox="0 0 1024 1024" version="1.1" xmlns="http://www.w3.org/2000/svg" p-id="3912" xmlns:xlink="http://www.w3.org/1999/xlink" width="128" height="128"><defs><style type="text/css"></style></defs><path d="M938.88 135.84A53.76 53.76 0 0 0 844.8 112a43.2 43.2 0 0 0-1.92 61.28s-48 55.36-49.92 57.28-52.64-33.28-64-29.92-48 80-48 80-112-126.72-179.36-116.64-96 101.92-96 101.92-28.64-8-35.36-8.64-4-24.64-20-40.64-49.92-12-49.92-12-36-40.64-53.28-41.92-44 41.28-45.28 43.36-18.72-10.72-18.72-10.72 16-50.72-26.72-56-90.72 34.72-64 73.28a53.6 53.6 0 0 0 61.28 24.64A681.44 681.44 0 0 0 222.24 288c6.08 0 32-42.72 34.72-48s34.08 32 44.64 45.28a608 608 0 0 0 68 55.36s-71.36 176-74.72 266.72 44.64 128 104 150.72 145.12 13.12 145.12 13.12l-3.36 32a116.64 116.64 0 0 0-13.28 7.36 182.08 182.08 0 0 0-27.36 33.28s-20-11.84-29.76 6.08 12 41.28 30.72 36.64 10.72-32 10.72-32a169.6 169.6 0 0 1 8.64-16 20.32 20.32 0 0 1 17.28-12s1.28 16 1.28 26.08 14.72 19.36 14.72 19.36v16c0 1.28-37.28 4.64-43.36 7.36s2.08 27.36 8.64 34.08 44.64-12.64 48-16a225.12 225.12 0 0 0-1.92-43.36h10.72s3.36 38.08 4.64 41.28a88.8 88.8 0 0 0 32 11.36c7.36 0 20.64-16 20.64-26.72s-41.92-13.28-41.92-13.28l-1.28-16 2.08-5.92a296.48 296.48 0 0 0 0-43.36h44.64s5.28 4.64 10.08 8a24.16 24.16 0 0 0 25.44-0.96c9.28-8 12.64-41.28-12-42.72a29.76 29.76 0 0 0-30.72 21.28l-50.72-7.36L572.8 768s25.28-1.92 40.64-4a406.08 406.08 0 0 0 124-40.64c66.72-32 74.72-96 66.72-201.28a340.64 340.64 0 0 0-73.92-180.64s21.76-60.16 23.36-62.88 45.28 18.08 53.28 16 75.36-99.36 75.36-99.36 69.28-12.64 56.64-59.36zM496 871.2c-5.28 4-20.64-9.28-8-18.72 4.32-3.52 12.8 14.72 8 18.72z m157.28-77.92c9.92 0 16 2.72 16 11.36s-12 12-16 8.64-5.76-20-0.48-20z m-519.36-576c-23.36 2.72-29.28-21.92-28-29.28s8.64-24.64 25.28-25.28 33.92-1.28 36.64 19.36-11.04 33.12-34.24 35.84z m182.72 58.72c-25.28-37.92-40-52.64-50.72-57.28s-14.72-6.72-18.72-2.72-20 41.28-29.28 42.72-45.92-28-45.92-32 7.36-8.64 11.36-9.28 19.36 16 24.64 11.36 42.72-49.28 45.28-48 41.28 48 48 46.08 19.36-9.92 27.36-5.92 18.72 10.08 20 17.28 2.08 37.28 12 39.36 35.36 3.36 34.72 6.72-17.92 38.72-17.92 38.72a116.48 116.48 0 0 1-61.28-46.56zM577.6 849.92a24.96 24.96 0 0 1-24 3.36 292.64 292.64 0 0 1 5.28-67.36c3.36-5.12 23.36 57.92 18.72 64z m196-282.72c-2.72 0-29.28-19.36-32-18.72s-5.92 8.64-4 10.72 34.08 19.36 34.72 24-1.28 18.08-1.28 22.72a30.72 30.72 0 0 1-1.28 8.64A280.64 280.64 0 0 0 727.52 592c-1.92 2.08-8.64 12-5.28 13.28a241.44 241.44 0 0 1 44.64 27.36 75.04 75.04 0 0 1-8 18.72l-2.72 3.36-45.28-32s-13.92 6.72-8 12 48 32 45.28 36.64-14.56 16.64-14.56 16.64A320 320 0 0 0 688 656c-4.64 0-10.72 6.08-8 8.64s42.72 33.28 40 35.36-17.28 10.08-17.28 10.08-33.28-24.64-36-25.28-8.64 3.36-8.64 6.08 34.08 25.28 32 26.72a118.24 118.24 0 0 1-32 10.08C656 724.48 636.8 704 629.6 704s-10.72 4-8 6.72 24.64 18.72 22.08 20.64-117.28 22.72-181.92 11.36-105.6-27.52-125.76-84.16 11.36-177.28 46.08-264.64S451.52 208 501.6 190.56c30.24-10.08 108.64 42.08 187.36 144s87.2 233.28 84.64 232.64z m88-377.28c-1.92 2.72-58.72 85.92-61.28 85.28S752 251.2 748.16 256s-29.28 70.72-32 66.72-23.36-32-23.36-32 33.28-76 42.08-71.36 48 34.72 54.72 32 62.72-68.64 66.08-66.72 8.32 2.56 5.92 5.28z m57.28-35.36a36.48 36.48 0 0 1-61.28 6.72c-20-24.64 9.6-45.76 18.08-48 37.92-10.08 51.2 21.92 43.2 41.28zM378.24 637.92a48 48 0 0 0-16 25.28 7.36 7.36 0 0 0 6.08 8.64c3.36 0 4.64-1.92 6.72-9.92s10.08-12.64 14.08-16-7.04-10.72-10.88-8z m67.36 51.36c-21.92-4.64-29.28-25.92-34.72-25.92-13.28 0-9.28 20 6.72 34.08a152.8 152.8 0 0 0 65.28 26.08 16 16 0 0 0 13.92-19.52c-2.56-7.52-29.28-10.08-51.2-14.72z m27.36-384c3.36-2.72 2.08-5.28 8.64-25.28a57.6 57.6 0 0 1 28-29.28c2.72-2.72 1.28-6.72-2.72-10.72s-22.72 2.08-33.28 28-12.96 34.88-12 36.64 8 3.84 11.2 1.28z m-26.72 96c3.36 0 22.08-14.72 58.72-30.72a140.32 140.32 0 0 1 76.64-7.36 65.76 65.76 0 0 0 2.08-17.28c0-6.72-33.92-9.28-77.92 4.64s-68.8 35.2-68 39.36 5.12 12 8.48 12z m84-1.28c-97.92 25.28-120.64 94.08-109.92 157.28s62.08 101.28 160 88.64 121.28-96 110.08-154.72-92.16-109.6-160.16-91.2zM576 624c-80 10.4-122.72-20.96-131.52-73.28s9.92-108.96 90.88-129.92c56.16-14.56 122.24 26.4 131.52 75.36S656 613.28 576 624z m-34.72-170.08c-54.24 14.08-66.72 52-60.8 87.04s34.24 56.16 88.16 49.12a69.12 69.12 0 0 0 60.8-85.6c-6.24-32.96-50.56-60.32-88.16-50.56z m50.88 48c-4.64 7.36-36 9.28-39.36 6.08s-4-26.72 5.28-32 38.72 18.56 33.92 25.92z" fill="#ffffff" p-id="3913"></path></svg>